<?xml version="1.0" encoding="utf-8"?>
<svg xmlns="http://www.w3.org/2000/svg" xmlns:xlink="http://www.w3.org/1999/xlink" style="margin: auto; background: none; display: block; shape-rendering: auto;" width="200px" height="200px" viewBox="0 0 100 100" preserveAspectRatio="xMidYMid">
<g transform="translate(50 50)">
<g>
<animateTransform attributeName="transform" type="rotate" values="0;32.72727272727273" keyTimes="0;1" dur="0.5714285714285714s" repeatCount="indefinite"></animateTransform><path d="M29.962476533157268 -1.5 L56.96247653315727 -1.5 L56.96247653315727 1.5 L29.962476533157268 1.5 A30 30 0 0 1 26.017000462073312 14.937057506633533 L26.017000462073312 14.937057506633533 L48.7308458485152 29.534359577934666 L47.10892339614841 32.05812017642821 L24.395078009706516 17.46081810512708 A30 30 0 0 1 13.811310571622023 26.631704795115947 L13.811310571622023 26.631704795115947 L25.027515922672958 51.191768669687946 L22.2986199366094 52.4380137086936 L11.082414585558466 27.87794983412161 A30 30 0 0 1 -2.779372839261973 29.870973981783266 L-2.779372839261973 29.870973981783266 L-6.621873472640667 56.59615291256845 L-9.591337798283467 56.16920839774859 L-5.748837164904773 29.44402946696341 A30 30 0 0 1 -18.487625011790364 23.626419987450983 L-18.487625011790364 23.626419987450983 L-36.16886482831306 44.03165849501596 L-38.436113551375826 42.06707629318011 L-20.75487373485313 21.661837785615134 A30 30 0 0 1 -28.32618687039152 9.880644583409472 L-28.32618687039152 9.880644583409472 L-54.23249715798295 17.487423618128073 L-55.077694828507234 14.608944697284592 L-29.17138454091581 7.002165662565991 A30 30 0 0 1 -29.17138454091581 -7.002165662565984 L-29.17138454091581 -7.002165662565984 L-55.07769482850724 -14.608944697284578 L-54.232497157982955 -17.487423618128062 L-28.326186870391524 -9.880644583409467 A30 30 0 0 1 -20.75487373485314 -21.66183778561513 L-20.75487373485314 -21.66183778561513 L-38.43611355137584 -42.0670762931801 L-36.168864828313076 -44.03165849501595 L-18.48762501179037 -23.62641998745098 A30 30 0 0 1 -5.748837164904788 -29.444029466963407 L-5.748837164904788 -29.444029466963407 L-9.591337798283488 -56.16920839774859 L-6.621873472640675 -56.59615291256845 L-2.7793728392619736 -29.870973981783266 A30 30 0 0 1 11.082414585558446 -27.877949834121615 L11.082414585558446 -27.877949834121615 L22.29861993660937 -52.43801370869362 L25.02751592267294 -51.19176866968795 L13.811310571622016 -26.63170479511595 A30 30 0 0 1 24.395078009706513 -17.460818105127082 L24.395078009706513 -17.460818105127082 L47.108923396148406 -32.05812017642821 L48.73084584851521 -29.534359577934655 L26.017000462073316 -14.937057506633524 A30 30 0 0 1 29.962476533157268 -1.5000000000000155 M0 -28A28 28 0 1 0 0 28 A28 28 0 1 0 0 -28" fill="#f8de3c"></path></g></g>
<!-- [ldio] generated by https://loading.io/ --></svg>